<?xml version="1.0" encoding="utf-8"?>
<!-- Generator: Adobe Illustrator 24.3.0, SVG Export Plug-In . SVG Version: 6.00 Build 0)  -->
<svg version="1.1" id="图层_1" xmlns="http://www.w3.org/2000/svg" xmlns:xlink="http://www.w3.org/1999/xlink" x="0px" y="0px"
	 viewBox="0 0 200 199" style="enable-background:new 0 0 200 199;" xml:space="preserve">
<style type="text/css">
	.st0{fill:#F4BB0B;}
</style>
<path class="st0" d="M100.5,119L80.9,99.5L100.5,80L120,99.5L100.5,119z M144.8,99.5L144.8,99.5l18,18.2l18.2-18.2l-18.3-18.3
	l-18.1,18.1L144.8,99.5z"/>
<path class="st0" d="M69.1,86.5l31.4-31.4L132.3,87l18.1-18.1l-50-50L51,68.4L69.1,86.5z M132.4,111.9l-32,32l-31.7-31.7l-18.1,18.1
	l49.8,49.8l50.1-50.1L132.4,111.9z M56.1,99.5l0.7-0.7L38.6,80.7L19.9,99.5L38.3,118l18.1-18.1L56.1,99.5z"/>
</svg>
