<svg xmlns="http://www.w3.org/2000/svg" xmlns:xlink="http://www.w3.org/1999/xlink" viewBox="0 0 67.08 67.08"><defs><style>.cls-1{fill:url(#未命名的渐变);}.cls-2{stroke:#f3ac25;stroke-miterlimit:10;fill:url(#未命名的渐变_2);}</style><linearGradient id="未命名的渐变" x1="61.87" y1="65.92" x2="10.38" y2="7.08" gradientUnits="userSpaceOnUse"><stop offset="0" stop-color="#f9741c"/><stop offset="1" stop-color="#fec11b"/></linearGradient><linearGradient id="未命名的渐变_2" x1="79.35" y1="55.52" x2="17.01" y2="25.2" gradientUnits="userSpaceOnUse"><stop offset="0.35" stop-color="#5d0c01"/><stop offset="1" stop-color="#f96006"/></linearGradient></defs><g id="图层_2" data-name="图层 2"><g id="图层_1-2" data-name="图层 1"><circle class="cls-1" cx="33.54" cy="33.54" r="33.54"/><path class="cls-2" d="M22.63,19.05a14.9,14.9,0,0,1,11.14-4.48q9,0,13.23,6a13.06,13.06,0,0,1,2.48,6.76H41.91a10.36,10.36,0,0,0-1.85-3.93,7.48,7.48,0,0,0-6-2.36,7.37,7.37,0,0,0-6.38,3.33q-2.34,3.33-2.34,9.43c0,4.06.82,7.11,2.47,9.13a7.7,7.7,0,0,0,6.26,3A7.09,7.09,0,0,0,40,43.36a11.47,11.47,0,0,0,1.88-4.2h7.52a16.33,16.33,0,0,1-5,9.63,14.48,14.48,0,0,1-10.26,3.72q-7.72,0-12.16-5T17.6,33.68Q17.6,24.19,22.63,19.05Z"/></g></g></svg>