<?xml version="1.0" encoding="UTF-8"?>
<svg width="119px" height="83px" viewBox="0 0 119 83" version="1.1" xmlns="http://www.w3.org/2000/svg" xmlns:xlink="http://www.w3.org/1999/xlink">
    <title>Combined Shape备份 2</title>
    <g id="页面-1" stroke="none" stroke-width="1" fill="none" fill-rule="evenodd" fill-opacity="0.25">
        <g id="首页" transform="translate(-333.000000, -787.000000)" fill="#6D6D6D">
            <path d="M383.632781,787 C385.542652,787 387.090909,788.548257 387.090909,790.458129 L387.090909,849.157523 C387.090909,850.302051 386.52462,851.37244 385.578429,852.016387 L360.040141,869.396899 C358.461233,870.471451 356.31018,870.06259 355.235628,868.483683 C354.845169,867.909957 354.636364,867.232023 354.636364,866.538034 L354.636364,844.774749 C354.636364,843.63022 355.202652,842.559831 356.148844,841.915884 L363.054,837.215 L336.458129,837.215503 C334.548257,837.215503 333,835.667246 333,833.757374 L333,790.458129 C333,788.548257 334.548257,787 336.458129,787 L383.632781,787 Z M452,849.157523 C452,850.302051 451.433711,851.37244 450.48752,852.016387 L424.949231,869.396899 C423.370324,870.471451 421.219271,870.06259 420.144719,868.483683 C419.75426,867.909957 419.545455,867.232023 419.545455,866.538034 L419.545455,844.774749 C419.545455,843.63022 420.111743,842.559831 421.057935,841.915884 L427.963,837.215 L401.367219,837.215503 C399.457348,837.215503 397.909091,835.667246 397.909091,833.757374 L397.909091,790.458129 C397.909091,788.548257 399.457348,787 401.367219,787 L448.541871,787 C450.451743,787 452,788.548257 452,790.458129 L452,849.157523 Z" id="Combined-Shape备份-2"></path>
        </g>
    </g>
</svg>