<?xml version="1.0" encoding="utf-8"?>
<!-- Generator: Adobe Illustrator 24.3.0, SVG Export Plug-In . SVG Version: 6.00 Build 0)  -->
<svg version="1.1" id="图层_1" xmlns="http://www.w3.org/2000/svg" xmlns:xlink="http://www.w3.org/1999/xlink" x="0px" y="0px"
	 viewBox="0 0 388 167" style="enable-background:new 0 0 388 167;" xml:space="preserve">
<style type="text/css">
	.st0{fill:#FFFFFF;}
	.st1{fill:url(#SVGID_1_);}
	.st2{clip-path:url(#SVGID_3_);}
	.st3{fill:#F76319;}
	.st4{clip-path:url(#SVGID_5_);}
	.st5{fill:#FFEB21;}
	.st6{fill:url(#SVGID_6_);}
	.st7{fill:#7AC943;}
	.st8{clip-path:url(#SVGID_8_);}
	.st9{fill:#61AA22;}
	.st10{clip-path:url(#SVGID_10_);}
	.st11{fill:#BCEF30;}
	.st12{fill:url(#SVGID_11_);}
</style>
<g id="图层_2_1_">
	<g id="图层_1-2">
		<polygon class="st0" points="51.3,123.2 90.8,111.7 98.6,163.7 137,159.9 157.2,159.2 226.3,159.2 266.3,162.2 271.8,119.7 
			289,119.4 298.8,107.7 343,118.4 329.4,86.6 298.5,55.5 58.1,38.2 		"/>
		<path class="st0" d="M67.4,9.1c7.6,0,15.1,2.1,21.7,6c8.1,4.8,13.5,13,14.7,22.3l0.3,2.1l-24.8,1.8l-0.6-1
			c-2.9-4.5-6.2-6.2-11.6-6.2c-3.4,0-6.7,1.4-9,4c-2.9,3.2-4.3,7.5-4,11.8c1,10.9,8.2,13.2,14,13.2c5.4,0,10.3-3.7,11.5-8.7l0.3-1.5
			l24.1-0.8v2.1c0,15.4-9.2,26.6-25.8,31.5c-5,1.5-8.3,4-9.8,7.5c-2.3,5.4,0.2,11.6,1.4,14.1l0.9,1.8l-1.8,0.9
			c-4,1.8-8.1,3.2-12.4,4.1l-1.5,0.4l-0.8-1.4c-1.9-3.6-2.9-7.6-2.9-11.7c-1.7,1.1-3.2,2-4.4,2.6l-1.6,0.8l-1-1.5
			c-0.2-0.2-4.1-6.1-5.1-8.2l-0.9-1.8l1.8-0.9c0.4-0.2,0.9-0.4,1.4-0.7c3.3-1.5,6.4-3.2,9.4-5.2c0.5-0.3,0.9-0.7,1.3-1.1
			c-0.2-0.1-0.5-0.2-0.7-0.3c-3.2-1-6.3-2.5-9.1-4.2C35.7,76.5,27.6,68,27,52.3c-1-28,18.9-41.9,37.9-43.1
			C65.8,9.1,66.6,9.1,67.4,9.1 M277.9,10.8l22.8,0.8l18.7,28.5l1.3-27.9l26.4,1l-2.1,73L328.4,97l3.7,11.1l-33.2-9l19.5-17
			l-17.2-26.2L300,81.8L275.5,81L277.9,10.8 M246.1,11.1l27,1.2L270,80.9l-25.9-3.3L246.1,11.1 M188.5,11.1l38.2,1.1l15.6,65.3
			h-24.9l-2.1-9.4h-15.8l-2.1,9h-24.9L188.5,11.1 M204.8,48.2h6.8l-2.1-9h-1.9L204.8,48.2 M132.3,11.2l0.3,21.6l14.2-0.1l0.8-20.4
			l24.7-0.2l-1.6,66.2L146,78.4l0.8-24.3l-14,0.1l0.1,26l-27,1.2l1.4-70.1L132.3,11.2 M67.4,2.1c-1,0-2,0-2.9,0.1
			c-11.6,0.6-22.6,5.4-31,13.5C27,22.1,19.3,33.8,20,52.5c0.7,17.9,9.6,28,17.4,33.4L37,86.1L35.2,87L29,90.2l3.1,6.3l0.9,1.8
			c1.2,2.3,4.5,7.5,5.6,9l1,1.5l3.4,5.1l3.2-1.6c0.5,1.4,1.1,2.7,1.8,4l0.7,1.4l2.5,5l5.4-1.4l1.5-0.4c4.8-1,9.4-2.6,13.9-4.7
			l1.8-0.9l6.2-3.1L77,106l-0.9-1.8c-1.2-2.3-2.2-5.9-1.2-8.1c0.8-1.9,3.4-3,5.4-3.6C87.2,90.5,93.6,87,99,82.3l-0.1,6.3l7.4-0.3
			l27-1.2l6.7-0.3v-1.4h6l24.8-0.2l6.8-0.1v-0.9h25.3l1.2-5.4l0.8-3.6h4.7l0.9,3.9l1.2,5.5h32.6l23.9,3.1v0.1h0.8h0.1l7.5,1v-0.7
			l23,0.8h0.4l-5.8,5l-9.9,8.6l12.7,3.4l33.2,8.9l12.6,3.4l-4.1-12.4l-2-5.9l12-7.8l3.1-2l0.1-3.7l2.1-73l0.2-6.9l-6.9-0.3l-26.4-1
			L314,5l-0.3,6.9l-0.3,6.2l-6.8-10.4l-2-3L301,4.6l-22.8-0.8l-7-0.2l-0.1,1.6l-24.7-1.1l-7.1-0.3l-0.2,7.1l-0.6,20.9l-5.1-21.2
			l-1.2-5.2l-5.4-0.2l-38.2-1.1L183,4l-1.3,5.5l-2.4,10l0.2-7.3l0.2-7.2l-7.2,0.1l-24.7,0.2l-6.7,0l-0.3,6.7l-0.6,13.8h-0.6
			l-0.2-14.6l-0.1-6.9h-38.7l-0.1,6.9l-0.1,4c-2.3-2.3-4.8-4.3-7.5-6C85.1,4.5,76.3,2.1,67.4,2.1z M68,56.2c-4.7,0-6.6-1.8-7-6.8
			c-0.1-2.4,0.7-4.7,2.2-6.4c0.9-1.1,2.3-1.8,3.8-1.8c3.3,0,4.3,0.7,5.8,3l0.6,1l0.8,1.2L73,51.4l-0.3,1.5
			C72.3,54.7,70.1,56.2,68,56.2L68,56.2z M306.9,82.9v-0.7l0.2-4.4l2,3.1L306.9,82.9L306.9,82.9z"/>
		<path class="st0" d="M221.2,81.5l71.4,6.5l-1.9,2.8c-1.9,2.7-3.5,5.6-4.8,8.6c-1.2,3.1-2.2,6.4-2.9,9.7l-0.4,1.8l-18.8-2l-4,46
			l-26.7-2.2l3.7-45.2l-18-2L221.2,81.5 M217.6,81.6l-0.7,2.5c0,0.1-3,12-4,17.8l-0.3,1.7H186v4h26v18h-2c-4,0-17.9,0.3-23,0.4v4.8
			c3,0,9.1-0.1,14.9-0.1c4.1,0,8.2,0,11.1,0.1h1.9l0.1,1.9c0.2,5.6,2,17.5,2,17.6l0.3,2.3H163l-1.1-70L217.6,81.6 M132.8,83.7
			c15.5,0,24.8,7.7,26.2,21.6c0.8,7.9-0.9,14.4-4.9,19.3c-5.7,7-14.4,8.5-17.9,8.9l-9,0.8l2,19.4l-24.7,1.8l-4.4-48.4l-1.5-20.9
			l2-0.2c1-0.1,23.7-2.2,31.5-2.2L132.8,83.7 M125.3,114.1l8-0.6c0,0,3.7-0.4,3.7-4.9c0-1.1-0.4-2.2-1.2-2.9c-1-0.9-2.3-1.4-3.6-1.5
			H132l-7.4,0.5L125.3,114.1 M214.9,73.9l-0.1,0.8l-53,1l-7,0.1l0.1,7v0.7c-5.6-4.3-13.1-6.7-22.2-6.7l0,0H132
			c-7.6,0.1-28,1.9-32,2.3l-2,0.2l-6.8,0.6l0.5,6.8l1.5,20.9v0.1l4.4,48.4l0.6,6.8l6.8-0.5l24.7-1.8l7.2-0.5l-0.8-7.2l-1.3-12.3
			l2-0.2c6.9-0.6,13.4-3.3,18.8-7.6l0.3,19.7l0.1,6.9h69.3l-1.2-8l-0.3-2.3c-0.4-3-1.7-12.5-1.9-16.9l-0.1-1.9l-0.3-6.6l-2.6-0.1
			v-11.4l10.3,1.1l-3.1,38.4l-0.6,7l7,0.6l26.7,2.2l7,0.6l0.6-6.9l3.4-38.9l11.7,1.2l6.3,0.7l1.3-6.2l0.4-1.8
			c0.6-2.9,1.5-5.7,2.5-8.4c1.1-2.5,2.5-5,4.1-7.2l1.9-2.8l6.7-9.9L293.2,81L226.5,75l0.1-0.5l-4.7,0.1h-0.1L214.9,73.9L214.9,73.9z
			"/>
		
			<linearGradient id="SVGID_1_" gradientUnits="userSpaceOnUse" x1="167.0502" y1="314.1587" x2="167.0502" y2="415.2273" gradientTransform="matrix(1 0 0 -1 20 426.5045)">
			<stop  offset="0" style="stop-color:#F9741C"/>
			<stop  offset="1" style="stop-color:#FEC11B"/>
		</linearGradient>
		<path class="st1" d="M102.1,54.3c0,15.7-10,25.3-24.3,29.6c-14.7,4.4-13.7,16.4-9.7,24.4c-3.8,1.8-7.9,3.1-12,4c-1-2-4-8-2-15
			c-2.6,1.8-5.2,3.5-8,5c0,0-4-6-5-8c3.8-1.7,7.5-3.7,11-6c3-2,3-4.1,0-5c-3-1-5.9-2.3-8.6-4c-8.2-5.3-13.9-14.2-14.4-27
			c-1-26,17.1-39.9,36-41c15.1-0.9,34,7,36.8,26.5l-21.5,1.5c-3.3-5.1-7.3-7.1-13.3-7.1c-10,0-15.7,10-15,18c1,11,7.9,15,16,15
			c6,0,12-4,13.4-10.2L102.1,54.3z M168.9,76.3l-20.8,0.2l0.9-24.3l-18.1,0.1l0.2,26l-23,1l1.3-66h21l0.3,21.6l18.1-0.1l0.8-20.4
			l20.8-0.2L168.9,76.3z M239.8,75.7H219l-2.1-9.4h-19l-2.1,9h-20.8l15-62l35,1L239.8,75.7z M214.1,50.3l-3-13h-5l-4,13H214.1z
			 M268.2,78.7l-21.9-2.8l1.8-62.6l23,1L268.2,78.7z M343.1,85.3l-17,11l3,9l-26-7L321,82.7l-21.5-32.9l-1.5,30.1l-20.5-0.7
			l2.3-66.2l19.8,0.7l21.5,32.8l1.5-32.1l22.5,0.9L343.1,85.3z"/>
		<g>
			<defs>
				<path id="SVGID_2_" d="M101.9,54.7c0,15.7-10,25.3-24.3,29.6c-14.7,4.4-13.7,16.4-9.7,24.4c-3.8,1.8-7.9,3.1-12,4c-1-2-4-8-2-15
					c-2.6,1.8-5.2,3.5-8,5c0,0-4-6-5-8c3.8-1.7,7.5-3.7,11-6c3-2,3-4.1,0-5c-3-1-5.9-2.3-8.6-4c-8.2-5.3-13.9-14.2-14.4-27
					c-1-26,17.1-39.9,36-41c15.1-0.9,34,7,36.8,26.5l-21.5,1.6c-3.3-5.1-7.3-7.1-13.3-7.1c-10,0-15.7,10-15,18c1,11,7.9,15,16,15
					c6,0,12-4,13.4-10.2L101.9,54.7z M168.7,76.7l-20.8,0.2l0.8-24.3l-18.1,0.1l0.2,26l-23,1l1.3-66h21l0.3,21.6l18.1-0.1l0.8-20.4
					l20.8-0.2L168.7,76.7z M239.6,76h-20.8l-2.1-9.4h-19l-2.1,9h-20.8l15-62l35,1L239.6,76z M213.9,50.7l-3-13h-5l-4,13H213.9z
					 M268,79.1l-21.9-2.8l1.8-62.6l23,1L268,79.1z M342.9,85.7l-17,11l3,9l-26-7l18-15.6l-21.6-33l-1.5,30.1l-20.5-0.7l2.3-66.2
					l19.8,0.7l21.5,32.8l1.5-32.1l22.5,0.9L342.9,85.7z"/>
			</defs>
			<clipPath id="SVGID_3_">
				<use xlink:href="#SVGID_2_"  style="overflow:visible;"/>
			</clipPath>
			<g class="st2">
				<circle class="st3" cx="194" cy="231.7" r="194"/>
			</g>
		</g>
		<g>
			<defs>
				<path id="SVGID_4_" d="M102.1,54.3c0,15.7-10,25.3-24.3,29.6c-14.7,4.4-13.7,16.4-9.7,24.4c-3.8,1.8-7.9,3.1-12,4c-1-2-4-8-2-15
					c-2.6,1.8-5.2,3.5-8,5c0,0-4-6-5-8c3.8-1.7,7.5-3.7,11-6c3-2,3-4.1,0-5c-3-1-5.9-2.3-8.6-4c-8.2-5.3-13.9-14.2-14.4-27
					c-1-26,17.1-39.9,36-41c15.1-0.9,34,7,36.8,26.5l-21.5,1.5c-3.3-5.1-7.3-7.1-13.3-7.1c-10,0-15.7,10-15,18c1,11,7.9,15,16,15
					c6,0,12-4,13.4-10.2L102.1,54.3z M168.9,76.3l-20.8,0.2l0.9-24.3l-18.1,0.1l0.2,26l-23,1l1.3-66h21l0.3,21.6l18.1-0.1l0.8-20.4
					l20.8-0.2L168.9,76.3z M239.8,75.7H219l-2.1-9.4h-19l-2.1,9h-20.8l15-62l35,1L239.8,75.7z M214.1,50.3l-3-13h-5l-4,13H214.1z
					 M268.2,78.7l-21.9-2.8l1.8-62.6l23,1L268.2,78.7z M343.1,85.3l-17,11l3,9l-26-7L321,82.7l-21.5-32.9l-1.5,30.1l-20.5-0.7
					l2.3-66.2l19.8,0.7l21.5,32.8l1.5-32.1l22.5,0.9L343.1,85.3z"/>
			</defs>
			<clipPath id="SVGID_5_">
				<use xlink:href="#SVGID_4_"  style="overflow:visible;"/>
			</clipPath>
			<g class="st4">
				<path class="st5" d="M55,116.3l-0.7-1.4c-1.9-3.6-2.9-7.7-2.9-11.8c-1.4,1-2.9,1.8-4.4,2.7l-1.6,0.8l-1-1.5
					c-0.2-0.2-4.1-6.1-5.1-8.2l-0.9-1.8l1.8-0.9l1.4-0.7c3.3-1.5,6.4-3.2,9.4-5.2c0.5-0.3,0.9-0.7,1.3-1.1c-0.2-0.1-0.5-0.2-0.7-0.3
					c-3.2-1-6.3-2.5-9.1-4.2c-6.7-4.4-14.8-12.8-15.4-28.6C26,26.1,46,12.1,65,11c8.5-0.5,16.9,1.5,24.2,5.9
					c8,4.8,13.5,13,14.7,22.3l0.3,2.1l-24.8,1.8l-0.7-1c-2.9-4.5-6.2-6.2-11.6-6.2c-3.4,0-6.7,1.4-9,4c-2.9,3.2-4.3,7.5-4,11.8
					c1,10.9,8.2,13.2,14,13.2c5.4,0,10.3-3.7,11.5-8.7l0.3-1.5l24.2-0.9v2.1c0,15.4-9.2,26.6-25.8,31.5c-5,1.5-8.3,4-9.8,7.5
					c-2.4,5.4,0.2,11.6,1.4,14l0.9,1.8l-1.8,0.9c-4,1.8-8.1,3.2-12.4,4.2L55,116.3z M57.5,94.3L56,99.5c-1,4.1-0.6,8.3,1.2,12.1
					c2.8-0.7,5.6-1.5,8.2-2.6c-2.3-5.6-2.5-11.1-0.6-15.6c2-4.6,6.2-7.9,12.4-9.8c17.6-5.2,22.2-16.4,22.8-25.6l-17,0.6
					C80.7,65,74.7,69.1,68,69c-10.5,0-17-6.1-18-16.8c-0.4-5.4,1.4-10.8,5.1-14.8C58.1,34,62.4,32,67,32c6.3,0,10.8,2.2,14.3,7
					l18.2-1.3C96,21.6,79.9,14.1,65.2,15c-24.4,1.5-34.8,21.2-34.1,38.9c0.4,11.1,5.1,19.9,13.5,25.4c2.5,1.6,5.2,2.8,8,3.8
					c2.8,0.8,3.5,2.5,3.7,3.5c0.2,1.3-0.2,3.2-3.1,5.1c-3,2-6.1,3.7-9.3,5.2c0.8,1.4,2,3.1,2.8,4.5c1.8-1,4-2.6,6.2-4L57.5,94.3z
					 M106,83.1l1.4-70.1h24.9l0.3,21.6l14.2-0.1l0.8-20.4l24.7-0.2L170.8,80L146,80.2l0.8-24.3l-14,0.1l0.2,26L106,83.1z M111.3,17
					l-1.2,61.9l18.9-0.8L128.8,52l22.2-0.2l-0.8,24.3L167,76l1.4-58.2L151.6,18l-0.8,20.4l-22,0.2L128.5,17L111.3,17z M242.3,79.4
					h-24.9l-2.1-9.4h-15.8l-2.1,9h-24.9l16-66.1l38.2,1.1L242.3,79.4z M220.6,75.4h16.6l-13.7-57.4L191.6,17l-14,58h16.6l2.1-9h22.2
					L220.6,75.4z M216.6,54h-17.2l5.2-17h8.1L216.6,54z M204.8,50h6.8l-2.1-9h-1.9L204.8,50z M270.1,82.6l-25.9-3.3l1.9-66.4l27,1.2
					L270.1,82.6z M248.4,75.8l18,2.3l2.6-60.2l-19-0.8L248.4,75.8z M332.2,109.9l-33.2-8.9l19.5-17l-17.2-26.2L300,83.6l-24.5-0.8
					l2.4-70.2l22.8,0.8l18.7,28.5l1.3-27.9l26.4,1l-2.1,73l-16.6,10.8L332.2,109.9z M307.2,99l18.8,5.1l-2.3-7l17.4-11.3l1.9-67
					l-18.5-0.7l-1.7,36.2l-24.3-37.1l-16.8-0.6l-2.1,62.2l16.5,0.6l1.7-34.3l25.8,39.5L307.2,99z"/>
			</g>
		</g>
		
			<linearGradient id="SVGID_6_" gradientUnits="userSpaceOnUse" x1="167.0319" y1="316.9787" x2="167.0319" y2="420.3187" gradientTransform="matrix(1 0 0 -1 20 426.5045)">
			<stop  offset="0.35" style="stop-color:#5D0C01"/>
			<stop  offset="1" style="stop-color:#F96006"/>
		</linearGradient>
		<path class="st6" d="M55,114.5l-0.8-1.4c-1.9-3.6-2.9-7.6-2.9-11.7c-1.7,1.1-3.2,2-4.4,2.6l-1.6,0.8l-1-1.5
			c-0.2-0.2-4.1-6.1-5.1-8.2l-0.9-1.8l1.8-0.9c0.4-0.2,0.9-0.4,1.4-0.7c3.3-1.5,6.4-3.2,9.4-5.2c0.5-0.3,0.9-0.7,1.3-1.1
			c-0.2-0.1-0.5-0.2-0.7-0.3c-3.2-1-6.3-2.5-9.1-4.2C35.7,76.5,27.6,68,27,52.3c-1-28,18.9-41.9,37.9-43.1
			c8.5-0.5,16.9,1.6,24.2,5.9c8.1,4.8,13.5,13,14.7,22.3l0.3,2.1l-24.8,1.8l-0.6-1c-2.9-4.5-6.2-6.2-11.6-6.2c-3.4,0-6.7,1.4-9,4
			c-2.9,3.2-4.3,7.5-4,11.8c1,10.9,8.2,13.2,14,13.2c5.4,0,10.3-3.7,11.5-8.7l0.3-1.5l24.1-0.8v2.1c0,15.4-9.2,26.6-25.8,31.5
			c-5,1.5-8.3,4-9.8,7.5c-2.3,5.4,0.2,11.6,1.4,14.1l0.9,1.8l-1.8,0.9c-4,1.8-8.1,3.2-12.4,4.1L55,114.5z M57.5,92.5L56,97.7
			c-1,4.1-0.6,8.3,1.2,12.1c2.8-0.7,5.6-1.5,8.3-2.6c-2.3-5.6-2.5-11.1-0.6-15.6c2-4.6,6.2-7.9,12.4-9.8
			c17.5-5.3,22.2-16.4,22.8-25.6l-17,0.6c-2.3,6.2-8.3,10.4-15,10.3c-10.5,0-17-6.1-18-16.8c-0.4-5.4,1.4-10.8,5.1-14.8
			c3-3.4,7.4-5.4,11.9-5.3c6.3,0,10.8,2.2,14.3,7l18.2-1.3c-3.5-16-19.6-23.6-34.3-22.7C40.7,14.7,30.4,34.4,31,52.1
			c0.4,11.1,5.1,19.9,13.5,25.4c2.5,1.6,5.2,2.8,8,3.8c2.8,0.8,3.5,2.5,3.7,3.5c0.2,1.3-0.2,3.2-3.1,5.1c-2.9,2-6,3.7-9.2,5.3
			c0.8,1.4,2,3.1,2.8,4.5c1.8-1.1,4-2.6,6.2-4L57.5,92.5z M106,81.3l1.4-70.1h24.9l0.3,21.6l14.2-0.1l0.8-20.4l24.7-0.2l-1.6,66.2
			L146,78.4l0.8-24.3l-14,0.1l0.1,26L106,81.3z M111.3,15.2l-1.2,61.9l18.9-0.8l-0.2-26.1L151,50l-0.8,24.4l16.7-0.1l1.4-58.2
			l-16.8,0.1l-0.8,20.4l-22,0.2l-0.3-21.6L111.3,15.2z M242.3,77.6h-24.9l-2.1-9.4h-15.8l-2.1,9h-24.9l16-66l38.2,1.1L242.3,77.6z
			 M220.6,73.6h16.6l-13.7-57.4l-31.9-0.9l-14,58h16.6l2.1-9h22.2L220.6,73.6z M216.6,52.2h-17.2l5.2-17h8.1L216.6,52.2z
			 M204.8,48.2h6.8l-2.1-9h-1.9L204.8,48.2z M270.1,80.8l-25.9-3.3l1.9-66.4l27,1.2L270.1,80.8z M248.3,74l17.9,2.3l2.8-60.2
			l-19-0.8L248.3,74z M332.1,108.1l-33.2-9l19.5-17l-17.2-26.2L300,81.8L275.5,81l2.4-70.2l22.8,0.8l18.6,28.5l1.3-27.9l26.4,1
			l-2.1,73L328.4,97L332.1,108.1z M307.2,97.2l18.8,5.1l-2.3-6.9l17.4-11.2l1.9-67l-18.5-0.7l-1.7,36.2l-24.3-37.1l-16.8-0.6
			l-2.1,62.2l16.5,0.6l1.7-34.3l25.8,39.5L307.2,97.2z"/>
		<path class="st7" d="M132.1,85.8c-7.9,0.1-31.4,2.2-31.4,2.2l1.3,18.9l4.2,46.5L127,152l-2-19.4l11-1c8-0.8,23-6,21-26
			C155.5,90.7,145,85.7,132.1,85.8z M133.5,115.6l-10,0.7l-1-13.3l9.4-0.7c2.1-0.2,7.2,1.4,7.1,6.4S135.3,115.4,133.5,115.6z"/>
		<path class="st7" d="M185,132.8v-8.7c0,0,20-0.4,25-0.4v-14h-26v-8h27c1-6,4-18,4-18l-51,1l1,66h50c0,0-1.8-12-2-17.8
			C204.2,132.7,185,132.8,185,132.8z"/>
		<path class="st7" d="M223,83.7l-2,20l18,2l-3.7,45.1l22.7,1.9l4-46l19,2c0.7-3.4,1.7-6.8,3-10c1.4-3.1,3.1-6.2,5-9L223,83.7z"/>
		<g>
			<defs>
				<path id="SVGID_7_" d="M133.2,86.6c-7.9,0.1-31.4,2.2-31.4,2.2l1.3,18.9l4.3,46.5l20.7-1.5l-2-19.4c0,0,8.2-0.8,11-1
					c8-0.8,23-6,21-26C156.6,91.4,146.1,86.4,133.2,86.6z M134.6,116.3l-10,0.7l-1-13.3l9.4-0.7c2.1-0.2,7.1,1.4,7.1,6.4
					S136.4,116.2,134.6,116.3z M214.1,133.6c0.2,5.8,2,17.8,2,17.8h-50l-1-66l51-1c0,0-3,12-4,18h-27v8h26v14c-5,0-25,0.4-25,0.4
					v8.8C186.1,133.6,205.4,133.4,214.1,133.6z M290.1,90.4c-1.9,2.8-3.6,5.9-5,9c-1.3,3.2-2.3,6.6-3,10l-19-2l-4,46l-22.7-1.9
					l3.7-45.1l-18-2l2-20L290.1,90.4z"/>
			</defs>
			<clipPath id="SVGID_8_">
				<use xlink:href="#SVGID_7_"  style="overflow:visible;"/>
			</clipPath>
			<g class="st8">
				<ellipse class="st9" cx="185.3" cy="46.7" rx="120.5" ry="73"/>
			</g>
		</g>
		<g>
			<defs>
				<path id="SVGID_9_" d="M132.1,85.8c-7.9,0.1-31.4,2.2-31.4,2.2l1.3,18.9l4.2,46.5L127,152l-2-19.4l11-1c8-0.8,23-6,21-26
					C155.5,90.7,145,85.7,132.1,85.8z M133.5,115.6l-10,0.7l-1-13.3l9.4-0.7c2.1-0.2,7.2,1.4,7.1,6.4S135.3,115.4,133.5,115.6z
					 M213,132.8c0.2,5.8,2,17.8,2,17.8h-50l-1-66l51-1c0,0-3,12-4,18h-27v8h26v14c-5,0-25,0.4-25,0.4v8.8
					C185,132.8,204.2,132.7,213,132.8z M289,89.7c-1.9,2.8-3.6,5.9-5,9c-1.3,3.2-2.3,6.6-3,10l-19-2l-4,46l-22.7-1.9l3.7-45.1l-18-2
					l2-20L289,89.7z"/>
			</defs>
			<clipPath id="SVGID_10_">
				<use xlink:href="#SVGID_9_"  style="overflow:visible;"/>
			</clipPath>
			<g class="st10">
				<path class="st11" d="M105.5,157.6l-4.4-48.4l-1.5-20.9l2-0.2c1-0.1,23.7-2.2,31.5-2.2l0,0c15.9-0.2,25.5,7.5,26.9,21.6
					c0.8,7.9-0.9,14.4-4.9,19.3c-5.7,7-14.4,8.5-17.9,8.9l-9,0.8l2,19.4L105.5,157.6z M103.9,91.9l1.2,17l4.1,44.5l16.7-1.2l-2-19.3
					l2-0.2l11-1c3-0.3,10.4-1.6,15.2-7.4c3.3-4.1,4.7-9.6,4-16.4c-1.2-12.2-8.9-18.2-22.9-18l0,0C126.8,89.9,109.7,91.4,103.9,91.9z
					 M122.6,120.4l-1.2-17.3l11.4-0.8c2.5-0.1,4.9,0.8,6.8,2.5c1.6,1.5,2.5,3.6,2.4,5.8c-0.1,6.1-4.6,8.7-7.4,8.9L122.6,120.4z
					 M125.6,106.8l0.7,9.3l8-0.6c0,0,3.6-0.4,3.7-4.9c0-1.1-0.4-2.2-1.2-2.9c-1-0.9-2.4-1.4-3.8-1.4L125.6,106.8z M216,154.7h-52
					l-1.1-70l55.6-1.1l-0.6,2.6c0,0.1-3,12-4,17.8l-0.3,1.7H187v4h26v18h-2c-4,0-17.9,0.3-23,0.4v4.8c5.2,0,19.1-0.1,26.1,0h1.9
					l0.1,1.9c0.2,5.6,2,17.5,2,17.6l0.3,2.3L216,154.7z M168,150.7h45.7c-0.5-3.3-1.3-9.4-1.6-13.8c-9.2-0.1-26,0-26.1,0h-2v-12.7h2
					c0.7,0,16.3-0.3,23.1-0.4v-10H183v-12h27.3c0.8-4.4,2.3-10.5,3.1-14L167,88.6L168,150.7z M260.9,156.8l-26.7-2.2l3.7-45.2l-18-2
					l2.4-23.9l71.4,6.5l-1.9,2.8c-1.9,2.7-3.5,5.6-4.8,8.6c-1.2,3.1-2.2,6.4-2.9,9.7l-0.4,1.8l-18.8-2L260.9,156.8z M238.5,150.9
					l18.7,1.6l4-46l19.3,2c0.7-2.9,1.6-5.8,2.7-8.6c1-2.3,2.1-4.5,3.4-6.6l-60.8-5.5l-1.6,16.1l18,2L238.5,150.9z"/>
			</g>
		</g>
		
			<linearGradient id="SVGID_11_" gradientUnits="userSpaceOnUse" x1="175.625" y1="270.8787" x2="175.625" y2="345.0087" gradientTransform="matrix(1 0 0 -1 20 426.5045)">
			<stop  offset="0.16" style="stop-color:#661504"/>
			<stop  offset="0.99" style="stop-color:#3C7005"/>
		</linearGradient>
		<path class="st12" d="M104.5,155.6l-4.4-48.4l-1.5-20.9l2-0.2c1-0.1,23.7-2.2,31.5-2.2l0,0c15.9-0.2,25.5,7.5,26.9,21.6
			c0.8,7.9-0.9,14.4-4.9,19.3c-5.7,7-14.4,8.5-17.9,8.9l-9,0.8l2,19.4L104.5,155.6z M102.9,89.9l1.2,17l4.1,44.5l16.7-1.2l-2-19.3
			l2-0.2l11-1c3-0.3,10.4-1.6,15.2-7.4c3.3-4.1,4.7-9.6,4-16.4c-1.2-12.2-8.9-18.2-22.9-18l0,0C125.8,87.9,108.7,89.4,102.9,89.9z
			 M121.6,118.4l-1.2-17.3l11.4-0.8c2.5-0.1,4.9,0.8,6.8,2.5c1.6,1.5,2.5,3.6,2.4,5.8c-0.1,6.1-4.6,8.7-7.4,8.9L121.6,118.4z
			 M124.6,104.8l0.7,9.3l8-0.6c0,0,3.6-0.4,3.7-4.9c0-1.1-0.4-2.2-1.2-2.9c-1-0.9-2.4-1.4-3.8-1.4L124.6,104.8z M215,152.7h-52
			l-1.1-70l55.6-1.1l-0.6,2.6c0,0.1-3,12-4,17.8l-0.3,1.7H186v4h26v18h-2c-4,0-17.9,0.3-23,0.4v4.8c5.2,0,19.1-0.1,26.1,0h1.9
			l0.1,1.9c0.2,5.6,2,17.5,2,17.6l0.3,2.3L215,152.7z M167,148.7h45.7c-0.5-3.3-1.3-9.4-1.6-13.8c-9.2-0.1-26,0-26.1,0h-2v-12.7h2
			c0.7,0,16.3-0.3,23.1-0.4v-10H182v-12h27.3c0.8-4.4,2.3-10.5,3.1-14L166,86.6L167,148.7z M259.9,154.8l-26.7-2.2l3.7-45.2l-18-2
			l2.4-23.9l71.4,6.5l-1.9,2.8c-1.9,2.7-3.5,5.6-4.8,8.6c-1.2,3.1-2.2,6.4-2.9,9.7l-0.4,1.8l-18.8-2L259.9,154.8z M237.5,148.9
			l18.7,1.6l4-46l19.3,2c0.7-2.9,1.6-5.8,2.7-8.6c1-2.3,2.1-4.5,3.4-6.6l-60.8-5.5l-1.6,16.1l18,2L237.5,148.9z"/>
	</g>
</g>
</svg>
