<?xml version="1.0" encoding="UTF-8"?>
<svg width="565px" height="308px" viewBox="0 0 565 308" version="1.1" xmlns="http://www.w3.org/2000/svg" xmlns:xlink="http://www.w3.org/1999/xlink">
    <title>标题</title>
    <defs>
        <filter x="-17.1%" y="-39.7%" width="134.1%" height="179.4%" filterUnits="objectBoundingBox" id="filter-1">
            <feOffset dx="0" dy="16" in="SourceAlpha" result="shadowOffsetOuter1"></feOffset>
            <feGaussianBlur stdDeviation="12" in="shadowOffsetOuter1" result="shadowBlurOuter1"></feGaussianBlur>
            <feColorMatrix values="0 0 0 0 0   0 0 0 0 0   0 0 0 0 0  0 0 0 0.104294143 0" type="matrix" in="shadowBlurOuter1" result="shadowMatrixOuter1"></feColorMatrix>
            <feMerge>
                <feMergeNode in="shadowMatrixOuter1"></feMergeNode>
                <feMergeNode in="SourceGraphic"></feMergeNode>
            </feMerge>
        </filter>
        <linearGradient x1="100%" y1="50%" x2="0%" y2="50%" id="linearGradient-2">
            <stop stop-color="#353DAF" offset="0%"></stop>
            <stop stop-color="#4D4EBE" offset="100%"></stop>
        </linearGradient>
        <polygon id="path-3" points="0 0 122 0 122 50 0 50 20 25"></polygon>
        <linearGradient x1="100%" y1="50%" x2="0%" y2="50%" id="linearGradient-5">
            <stop stop-color="#E3E5F8" stop-opacity="0.5" offset="0%"></stop>
            <stop stop-color="#FFFFFF" offset="49.7728445%"></stop>
            <stop stop-color="#E3E5F8" stop-opacity="0.499918051" offset="100%"></stop>
        </linearGradient>
        <polygon id="path-6" points="0 0 122 0 122 50 0 50 20 25"></polygon>
        <radialGradient cx="50%" cy="50%" fx="50%" fy="50%" r="50%" id="radialGradient-8">
            <stop stop-color="#6D78E1" offset="0%"></stop>
            <stop stop-color="#6D78E1" stop-opacity="0" offset="100%"></stop>
        </radialGradient>
        <filter x="-35.7%" y="-35.7%" width="171.4%" height="171.4%" filterUnits="objectBoundingBox" id="filter-9">
            <feGaussianBlur stdDeviation="10" in="SourceGraphic"></feGaussianBlur>
        </filter>
        <linearGradient x1="100%" y1="50%" x2="0%" y2="50%" id="linearGradient-10">
            <stop stop-color="#414CC2" offset="0%"></stop>
            <stop stop-color="#4553C5" offset="49.7728445%"></stop>
            <stop stop-color="#414CC2" offset="100%"></stop>
        </linearGradient>
        <polygon id="path-11" points="0 0 250 0 250 50 0 50 0 25"></polygon>
        <filter x="-2.4%" y="-12.0%" width="104.8%" height="124.0%" filterUnits="objectBoundingBox" id="filter-12">
            <feOffset dx="0" dy="0" in="SourceAlpha" result="shadowOffsetOuter1"></feOffset>
            <feGaussianBlur stdDeviation="2" in="shadowOffsetOuter1" result="shadowBlurOuter1"></feGaussianBlur>
            <feColorMatrix values="0 0 0 0 0.262745098   0 0 0 0 0.309803922   0 0 0 0 0.764705882  0 0 0 1 0" type="matrix" in="shadowBlurOuter1"></feColorMatrix>
        </filter>
        <linearGradient x1="100%" y1="50%" x2="0%" y2="50%" id="linearGradient-13">
            <stop stop-color="#E3E5F8" stop-opacity="0.5" offset="0%"></stop>
            <stop stop-color="#FFFFFF" offset="49.7728445%"></stop>
            <stop stop-color="#E3E5F8" stop-opacity="0.499918051" offset="100%"></stop>
        </linearGradient>
        <linearGradient x1="50%" y1="0%" x2="50%" y2="100%" id="linearGradient-14">
            <stop stop-color="#586DEE" stop-opacity="0" offset="0%"></stop>
            <stop stop-color="#586DEE" offset="100%"></stop>
        </linearGradient>
    </defs>
    <g id="页面-1" stroke="none" stroke-width="1" fill="none" fill-rule="evenodd">
        <g id="NTF-奖励" transform="translate(-678.000000, -154.000000)">
            <g id="标题" filter="url(#filter-1)" transform="translate(735.000000, 211.000000)">
                <g id="矩形-+-路径备份蒙版" transform="translate(329.000000, 88.000000)">
                    <mask id="mask-4" fill="white">
                        <use xlink:href="#path-3"></use>
                    </mask>
                    <use id="蒙版" fill="url(#linearGradient-2)" transform="translate(61.000000, 25.000000) scale(-1, 1) translate(-61.000000, -25.000000) " xlink:href="#path-3"></use>
                    <polygon id="矩形" fill="url(#linearGradient-5)" opacity="0.5" mask="url(#mask-4)" points="-143 4 173 4 173 6 -143 6 -143 5"></polygon>
                    <polygon id="矩形备份-3" fill="url(#linearGradient-5)" opacity="0.5" mask="url(#mask-4)" points="-143 44 173 44 173 46 -143 46 -143 45"></polygon>
                    <polygon id="路径备份" fill="#2833A8" mask="url(#mask-4)" transform="translate(11.000000, 42.000000) scale(-1, 1) translate(-11.000000, -42.000000) " points="22 50 22 34 0 34"></polygon>
                </g>
                <g id="矩形-+-路径备份蒙版备份" transform="translate(61.000000, 113.000000) scale(-1, 1) translate(-61.000000, -113.000000) translate(0.000000, 88.000000)">
                    <mask id="mask-7" fill="white">
                        <use xlink:href="#path-6"></use>
                    </mask>
                    <use id="蒙版" fill="url(#linearGradient-2)" transform="translate(61.000000, 25.000000) scale(-1, 1) translate(-61.000000, -25.000000) " xlink:href="#path-6"></use>
                    <polygon id="矩形" fill="url(#linearGradient-5)" opacity="0.5" mask="url(#mask-7)" points="-143 4 173 4 173 6 -143 6 -143 5"></polygon>
                    <polygon id="矩形备份-3" fill="url(#linearGradient-5)" opacity="0.5" mask="url(#mask-7)" points="-143 44 173 44 173 46 -143 46 -143 45"></polygon>
                    <polygon id="路径备份" fill="#2833A8" mask="url(#mask-7)" transform="translate(11.000000, 42.000000) scale(-1, 1) translate(-11.000000, -42.000000) " points="22 50 22 34 0 34"></polygon>
                </g>
                <g id="编组" transform="translate(126.000000, 0.000000)">
                    <path d="M194,78 L194,118 L105.138,99.678 L192,128.263158 L171.787363,163 L98.479,98.305 L98.26,98.26 L98.297,98.438 L163,170.212892 L128.263158,190 L99.586,104.694 L118,194 L78,194 L97.62,98.844 L97.361,98.074 L97,98 L97.314,97.935 L97,97 L97.76,97.843 L97.829,97.829 L97.846,97.747 L97,97 L97.937,97.308 L98,97 L98.073,97.353 L98.868,97.615 L194,78 Z M0,78 L95.134,97.614 L97,97 L96.082,97.81 L96.24,97.843 L97,97 L96.686,97.934 L97,97.9997691 L96.639,98.074 L65.7368421,190 L31,170.212892 L95.893,98.228 L95.523,98.304 L22.2126368,163 L2,128.263158 L88.871,99.675 L0,118 L0,78 Z M118,0 L99.586,89.306 L128.263158,4 L163,23.7871076 L98.297,95.562 L98.222,95.921 L171.787363,31 L192,65.7368421 L98.073,96.647 L98,97 L97.936,96.692 L97,97 L97.846,96.253 L97.814,96.097 L97,97 L97.62,95.156 L78,0 L118,0 Z M65.7368421,4 L97,97 L31,23.7871076 L65.7368421,4 Z M22.2126368,31 L97,97 L2,65.7368421 L22.2126368,31 Z" id="形状结合" fill-opacity="0.2" fill="url(#radialGradient-8)" style="mix-blend-mode: screen;"></path>
                    <circle id="椭圆形" fill="#7C85E5" style="mix-blend-mode: screen;" opacity="0.2" filter="url(#filter-9)" cx="97" cy="96" r="42"></circle>
                </g>
                <g id="编组-5" transform="translate(101.000000, 72.000000)">
                    <g id="矩形">
                        <use fill="black" fill-opacity="1" filter="url(#filter-12)" xlink:href="#path-11"></use>
                        <use fill="url(#linearGradient-10)" fill-rule="evenodd" xlink:href="#path-11"></use>
                    </g>
                    <polygon id="矩形" fill="url(#linearGradient-13)" opacity="0.5" points="0 4 250 4 250 6 0 6 0 5"></polygon>
                    <polygon id="矩形备份-4" fill="url(#linearGradient-13)" opacity="0.5" points="0 44 250 44 250 46 0 46 0 45"></polygon>
                </g>
                <g id="矩形" transform="translate(175.000000, 83.000000)">
                    <text id="每周奖励" font-family="MicrosoftYaHei-Bold, Microsoft YaHei" font-size="24" font-weight="bold" line-spacing="24" fill="#FFFFFF">
                        <tspan x="0" y="25">每周奖励</tspan>
                    </text>
                    <rect fill="url(#linearGradient-14)" opacity="0.6" x="-15" y="13" width="121" height="14"></rect>
                </g>
                <polygon id="路径" fill="#02A0B4" transform="translate(317.500000, 52.000000) rotate(86.000000) translate(-317.500000, -52.000000) " points="313 47 313 57 322 52 322 47"></polygon>
                <polygon id="路径备份-2" fill="#195BB6" transform="translate(121.500000, 56.000000) rotate(26.000000) translate(-121.500000, -56.000000) " points="117 51 117 61 126 56 126 51"></polygon>
                <polygon id="路径备份-7" fill="#195BB6" transform="translate(267.500000, 143.000000) rotate(78.000000) translate(-267.500000, -143.000000) " points="263 138 263 148 272 143 272 138"></polygon>
                <polygon id="路径备份-3" fill="#00A5BF" transform="translate(191.500000, 27.000000) rotate(-61.000000) translate(-191.500000, -27.000000) " points="187 22 187 32 196 27 196 22"></polygon>
                <polygon id="路径备份-4" fill="#195BB6" opacity="0.487444196" transform="translate(182.500000, 62.000000) rotate(38.000000) translate(-182.500000, -62.000000) " points="179.5 59 179.5 65 185.5 62 185.5 59"></polygon>
                <polygon id="路径备份-5" fill="#02A0B4" opacity="0.487444196" transform="translate(256.000000, 57.000000) rotate(38.000000) translate(-256.000000, -57.000000) " points="253 54 253 60 259 57 259 54"></polygon>
                <polygon id="路径备份-6" fill="#02A0B4" opacity="0.487444196" transform="translate(182.000000, 142.000000) rotate(38.000000) translate(-182.000000, -142.000000) " points="179 139 179 145 185 142 185 139"></polygon>
            </g>
        </g>
    </g>
</svg>