<?xml version="1.0" encoding="utf-8"?>
<!-- Generator: Adobe Illustrator 24.3.0, SVG Export Plug-In . SVG Version: 6.00 Build 0)  -->
<svg version="1.1" id="图层_1" xmlns="http://www.w3.org/2000/svg" xmlns:xlink="http://www.w3.org/1999/xlink" x="0px" y="0px"
	 viewBox="0 0 626.5 861.7" style="enable-background:new 0 0 626.5 861.7;" xml:space="preserve">
<style type="text/css">
	.st0{fill-rule:evenodd;clip-rule:evenodd;fill:#2B274D;stroke:url(#矩形_8_);stroke-width:4.1992;}
	
		.st1{opacity:0.3;fill-rule:evenodd;clip-rule:evenodd;fill:#2B274D;stroke:url(#矩形_9_);stroke-width:4.1992;enable-background:new    ;}
	.st2{opacity:0.5;fill-rule:evenodd;clip-rule:evenodd;fill:url(#矩形_10_);enable-background:new    ;}
	.st3{opacity:0.5;fill-rule:evenodd;clip-rule:evenodd;fill:url(#矩形_11_);enable-background:new    ;}
</style>
<g id="页面-1">
	<g id="编组-14">
		<g id="编组-7">
			
				<linearGradient id="矩形_8_" gradientUnits="userSpaceOnUse" x1="-1077.3037" y1="2593.3665" x2="-1077.3037" y2="2595.5027" gradientTransform="matrix(312 0 0 389 336431.9688 -1008805.25)">
				<stop  offset="0" style="stop-color:#5E598C"/>
				<stop  offset="1" style="stop-color:#2B274D"/>
			</linearGradient>
			<path id="矩形" class="st0" d="M33.9,0h558.6c17.6,0,31.9,15.9,31.9,35.4v788.8c0,19.4-14.4,35.4-31.9,35.4H33.9
				C16.4,859.5,2,843.6,2,824.2V35.4C2,15.9,16.4,0,33.9,0z"/>
			
				<linearGradient id="矩形_9_" gradientUnits="userSpaceOnUse" x1="-1077.0892" y1="2593.5806" x2="-1077.0892" y2="2595.7168" gradientTransform="matrix(296 0 0 376 319131.625 -975154.8125)">
				<stop  offset="0" style="stop-color:#5E598C"/>
				<stop  offset="1" style="stop-color:#2B274D"/>
			</linearGradient>
			<path id="矩形_1_" class="st1" d="M41.9,17.7h542.7c13.2,0,23.9,11.9,23.9,26.5V822c0,14.6-10.8,26.5-23.9,26.5H41.9
				C28.7,848.5,18,836.5,18,822V44.2C18,29.6,28.7,17.7,41.9,17.7z"/>
		</g>
		<g id="编组-8" transform="translate(0.000000, 299.000000)">
			
				<linearGradient id="矩形_10_" gradientUnits="userSpaceOnUse" x1="-1076.3314" y1="2631.196" x2="-1078.3265" y2="2631.196" gradientTransform="matrix(314 0 0 60 338594.5312 -157362.3281)">
				<stop  offset="0" style="stop-color:#3B50E0;stop-opacity:0"/>
				<stop  offset="0.5184" style="stop-color:#3F53E1"/>
				<stop  offset="1" style="stop-color:#4256E2;stop-opacity:0"/>
			</linearGradient>
			<path id="矩形_2_" class="st2" d="M0,456.2h626.5v78.2c0,15.6-14.4,28.4-31.9,28.4H31.9C14.4,562.7,0,549.9,0,534.3V456.2
				L0,456.2z"/>
			
				<linearGradient id="矩形_11_" gradientUnits="userSpaceOnUse" x1="-1076.3314" y1="3225.2146" x2="-1078.3265" y2="3225.2146" gradientTransform="matrix(314 0 0 4 338594.5312 -12441.1465)">
				<stop  offset="0" style="stop-color:#3B50E0;stop-opacity:0"/>
				<stop  offset="0.5184" style="stop-color:#6477FB"/>
				<stop  offset="1" style="stop-color:#4256E2;stop-opacity:0"/>
			</linearGradient>
			<path id="矩形_3_" class="st3" d="M0,456.2h626.5c0,3.9-3.6,7.1-8,7.1H8C3.6,463.3,0,460.1,0,456.2L0,456.2L0,456.2z"/>
		</g>
	</g>
</g>
</svg>
