<?xml version="1.0" encoding="UTF-8"?>
<svg width="314px" height="92px" viewBox="0 0 314 92" version="1.1" xmlns="http://www.w3.org/2000/svg" xmlns:xlink="http://www.w3.org/1999/xlink">
    <title>xia</title>
    <defs>
        <linearGradient x1="100%" y1="50%" x2="0%" y2="50%" id="linearGradient-1">
            <stop stop-color="#3B50E0" stop-opacity="0" offset="0%"></stop>
            <stop stop-color="#3F53E1" offset="51.8369932%"></stop>
            <stop stop-color="#4256E2" stop-opacity="0" offset="100%"></stop>
        </linearGradient>
        <linearGradient x1="100%" y1="50%" x2="0%" y2="50%" id="linearGradient-2">
            <stop stop-color="#3B50E0" stop-opacity="0" offset="0%"></stop>
            <stop stop-color="#6477FB" offset="51.8369932%"></stop>
            <stop stop-color="#4256E2" stop-opacity="0" offset="100%"></stop>
        </linearGradient>
        <linearGradient x1="99.7782939%" y1="49.7782939%" x2="0.221706081%" y2="49.7782939%" id="linearGradient-3">
            <stop stop-color="#3944C2" offset="0%"></stop>
            <stop stop-color="#4B54C7" offset="100%"></stop>
        </linearGradient>
    </defs>
    <g id="页面-1" stroke="none" stroke-width="1" fill="none" fill-rule="evenodd">
        <g id="NTF-市场-市场" transform="translate(-266.000000, -721.000000)">
            <g id="xia" transform="translate(266.000000, 721.000000)">
                <path d="M0,32 L314,32 L314,76 C314,84.836556 306.836556,92 298,92 L16,92 C7.163444,92 1.082166e-15,84.836556 0,76 L0,32 L0,32 Z" id="矩形" fill="url(#linearGradient-1)" opacity="0.5"></path>
                <path d="M0,32 L314,32 C314,34.209139 312.209139,36 310,36 L4,36 C1.790861,36 2.705415e-16,34.209139 0,32 L0,32 L0,32 Z" id="矩形" fill="url(#linearGradient-2)" opacity="0.5"></path>
                <path d="M214,0 L314,0 L314,76 C314,84.836556 306.836556,92 298,92 L184,92 L184,92 L184,33 L214,0 Z" id="矩形" fill="url(#linearGradient-3)"></path>
                <path d="M305,7 L305,70 C305,74.1421356 303.321068,77.8921356 300.606602,80.6066017 C297.892136,83.3210678 294.142136,85 290,85 L290,85 L193,85 L193,35.0846723 L218.747556,7 L305,7 Z" id="矩形" stroke="#F9DD66" stroke-width="2" opacity="0.2"></path>
            </g>
        </g>
    </g>
</svg>