<?xml version="1.0" encoding="UTF-8"?>
<svg width="64px" height="64px" viewBox="0 0 64 64" version="1.1" xmlns="http://www.w3.org/2000/svg" xmlns:xlink="http://www.w3.org/1999/xlink">
    <title>YUAN-circle-fill</title>
    <defs>
        <linearGradient x1="50%" y1="100%" x2="50%" y2="3.061617e-15%" id="linearGradient-1">
            <stop stop-color="#F39E58" offset="0%"></stop>
            <stop stop-color="#F0C87E" offset="100%"></stop>
        </linearGradient>
    </defs>
    <g id="页面-1" stroke="none" stroke-width="1" fill="none" fill-rule="evenodd">
        <g id="NTF-市场-交易记录" transform="translate(-765.000000, -418.000000)">
            <g id="YUAN-circle-fill" transform="translate(765.000000, 418.000000)">
                <circle id="椭圆形" fill="url(#linearGradient-1)" cx="32" cy="32" r="32"></circle>
                <rect id="矩形" fill="#000000" fill-rule="nonzero" opacity="0" x="16" y="16" width="32" height="32"></rect>
                <path d="M40.9523187,20.6687027 L34.9832285,32.204023 L38.314314,32.204023 C38.5507136,32.204023 38.7441314,32.4067923 38.7441314,32.6546215 L38.7441314,34.3387332 C38.7441314,34.5865624 38.5507136,34.7893317 38.314314,34.7893317 L33.9086848,34.7893317 L33.9086848,37.1268111 L38.314314,37.1268111 C38.5507136,37.1268111 38.7441314,37.3295804 38.7441314,37.5774096 L38.7441314,39.2615213 C38.7441314,39.5093504 38.5507136,39.7121197 38.314314,39.7121197 L33.9086848,39.7121197 L33.9086848,43.547839 C33.9086848,43.7956682 33.7152669,43.9984375 33.4788673,43.9984375 L30.5614811,43.9984375 C30.3250815,43.9984375 30.1316637,43.7956682 30.1316637,43.547839 L30.1316637,39.7121197 L25.7421526,39.7121197 C25.505753,39.7121197 25.3123352,39.5093504 25.3123352,39.2615213 L25.3123352,37.5774096 C25.3123352,37.3295804 25.505753,37.1268111 25.7421526,37.1268111 L30.1316637,37.1268111 L30.1316637,34.7893317 L25.7421526,34.7893317 C25.505753,34.7893317 25.3123352,34.5865624 25.3123352,34.3387332 L25.3123352,32.6546215 C25.3123352,32.4067923 25.505753,32.204023 25.7421526,32.204023 L29.0410018,32.204023 L23.0504207,20.6687027 C22.9375936,20.449036 23.0128116,20.1786769 23.2223477,20.0547623 C23.2868203,20.0209674 23.3566656,19.9984375 23.426511,19.9984375 L26.6877511,19.9984375 C26.8489327,19.9984375 26.9993688,20.0941897 27.0692141,20.2462666 L31.9368971,30.3847318 L32.1195695,30.3847318 L36.9872525,20.2462666 C37.0624705,20.0941897 37.2075339,19.9984375 37.3687155,19.9984375 L40.565483,19.9984375 C40.8018826,19.9984375 40.9953005,20.2012068 40.9953005,20.449036 C41.0060459,20.5278907 40.9845551,20.6011129 40.9523187,20.6687027 Z" id="路径" fill="#FFFFFF" fill-rule="nonzero"></path>
            </g>
        </g>
    </g>
</svg>