<?xml version="1.0" encoding="UTF-8"?>
<svg width="64px" height="64px" viewBox="0 0 64 64" version="1.1" xmlns="http://www.w3.org/2000/svg" xmlns:xlink="http://www.w3.org/1999/xlink">
    <title>1</title>
    <defs>
        <linearGradient x1="50%" y1="0%" x2="50%" y2="100%" id="linearGradient-1">
            <stop stop-color="#5B64D3" offset="0%"></stop>
            <stop stop-color="#3D47C3" offset="100%"></stop>
        </linearGradient>
    </defs>
    <g id="页面-1" stroke="none" stroke-width="1" fill="none" fill-rule="evenodd">
        <g id="NTF-市场-交易记录" transform="translate(-298.000000, -418.000000)">
            <g id="1" transform="translate(298.000000, 418.000000)">
                <circle id="椭圆形" fill="url(#linearGradient-1)" cx="32" cy="32" r="32"></circle>
                <g id="interation-fill" transform="translate(16.000000, 16.000000)" fill-rule="nonzero">
                    <rect id="矩形" fill="#000000" opacity="0" x="0" y="0" width="32" height="32"></rect>
                    <path d="M27.9943942,19.8866578 C27.9943942,23.0315446 25.4885839,25.579301 22.4053723,25.579301 L10.8741606,25.579301 L10.8741606,28.6161355 C10.8741606,28.940292 10.509781,29.1165877 10.2631241,28.9175442 L4.14715328,24.0438228 C3.95094891,23.890275 3.95094891,23.5888663 4.14715328,23.4353185 L10.2631241,18.5615971 C10.509781,18.3625536 10.8741606,18.5445362 10.8741606,18.8630057 L10.8741606,21.8998403 L22.4053723,21.8998403 C23.5041168,21.8998403 24.3954453,20.9899273 24.3954453,19.8752839 L24.3954453,15.3882755 C24.3954453,15.1778581 24.5636204,15.0015625 24.7766423,15.0015625 L27.6188029,15.0015625 C27.826219,15.0015625 28,15.1721712 28,15.3882755 L28,19.8866578 L27.9943942,19.8866578 Z" id="路径" fill="#FFFFFF"></path>
                    <path d="M27.8535358,8.56094917 L21.7373883,13.4386333 C21.4907243,13.6378386 21.1263342,13.4557081 21.1263342,13.1369796 L21.1263342,10.0976758 L9.59478936,10.0976758 C8.4960131,10.0976758 7.60465888,11.0083286 7.60465888,12.1238783 L7.60465888,16.6145351 C7.60465888,16.8251235 7.43647884,17.0015625 7.22345079,17.0015625 L4.38120809,17.0015625 C4.17378604,17.0015625 4,16.8308151 4,16.6145351 L4,12.1238783 C4,8.97643452 6.50588261,6.42660663 9.58918336,6.42660663 L21.1207282,6.42660663 L21.1207282,3.38730284 C21.1207282,3.06288277 21.4851183,2.88644379 21.7317823,3.08564909 L27.8479298,7.96333326 C28.0497459,8.10562276 28.0497459,8.40727651 27.8535358,8.56094917 Z" id="路径" fill="#FFFFFF"></path>
                </g>
            </g>
        </g>
    </g>
</svg>